<svg xmlns="http://www.w3.org/2000/svg" width="37" height="37" viewBox="0 0 37 37">
  <path id="Unión_3" data-name="Unión 3" d="M0,18.5A18.5,18.5,0,1,1,18.5,37,18.5,18.5,0,0,1,0,18.5Zm9.454-7.618a2.956,2.956,0,0,0-2.038,2.057A30.513,30.513,0,0,0,6.94,18.5a30.4,30.4,0,0,0,.476,5.561A2.9,2.9,0,0,0,9.454,26.1c1.828.5,9.046.5,9.046.5s7.237,0,9.046-.476a2.9,2.9,0,0,0,2.038-2.038,30.532,30.532,0,0,0,.476-5.561,28.975,28.975,0,0,0-.476-5.58A2.9,2.9,0,0,0,27.546,10.9c-1.809-.5-9.046-.5-9.046-.5S11.263,10.406,9.454,10.882ZM16.2,15.034,22.213,18.5,16.2,21.966Z" fill="#03b19d"/>
</svg>
