<svg xmlns="http://www.w3.org/2000/svg" width="37" height="37" viewBox="0 0 37 37">
  <path id="Unión_2" data-name="Unión 2" d="M0,18.5A18.5,18.5,0,1,1,18.5,37,18.5,18.5,0,0,1,0,18.5ZM14.12,7.941a7.808,7.808,0,0,0-2.579.494,5.438,5.438,0,0,0-3.108,3.107,7.81,7.81,0,0,0-.494,2.579c-.052,1.133-.064,1.494-.064,4.38s.012,3.247.065,4.38a7.8,7.8,0,0,0,.494,2.579,5.434,5.434,0,0,0,3.107,3.107,7.81,7.81,0,0,0,2.579.493c1.133.052,1.494.064,4.38.064s3.247-.012,4.38-.064a7.814,7.814,0,0,0,2.579-.493,5.435,5.435,0,0,0,3.107-3.107,7.8,7.8,0,0,0,.493-2.579c.052-1.133.064-1.494.064-4.38s-.012-3.247-.064-4.38a7.793,7.793,0,0,0-.493-2.579,5.438,5.438,0,0,0-3.107-3.108,7.815,7.815,0,0,0-2.579-.493c-1.133-.052-1.494-.065-4.38-.065S15.253,7.889,14.12,7.941Zm.087,19.207a5.867,5.867,0,0,1-1.973-.366,3.517,3.517,0,0,1-2.016-2.016,5.884,5.884,0,0,1-.366-1.972c-.051-1.12-.062-1.457-.062-4.293s.011-3.172.062-4.292a5.889,5.889,0,0,1,.366-1.973,3.52,3.52,0,0,1,2.017-2.016,5.858,5.858,0,0,1,1.972-.366c1.12-.051,1.456-.062,4.293-.062s3.172.011,4.292.063a5.854,5.854,0,0,1,1.973.366,3.517,3.517,0,0,1,2.016,2.016,5.871,5.871,0,0,1,.366,1.973c.051,1.12.062,1.456.062,4.292s-.011,3.173-.062,4.293a5.884,5.884,0,0,1-.366,1.972,3.517,3.517,0,0,1-2.016,2.016,5.867,5.867,0,0,1-1.973.366c-1.12.051-1.456.062-4.293.062S15.327,27.2,14.207,27.147ZM13.045,18.5A5.455,5.455,0,1,0,18.5,13.045,5.454,5.454,0,0,0,13.045,18.5ZM22.9,12.829a1.275,1.275,0,1,0,1.275-1.275A1.275,1.275,0,0,0,22.9,12.829ZM14.959,18.5A3.541,3.541,0,1,1,18.5,22.041,3.541,3.541,0,0,1,14.959,18.5Z" fill="#03b19d"/>
</svg>
