<svg xmlns="http://www.w3.org/2000/svg" width="70.195" height="27.345" viewBox="0 0 70.195 27.345">
  <g id="Grupo_587" data-name="Grupo 587" transform="translate(-308.124 -202.864)" opacity="0.8">
    <g id="Grupo_228" data-name="Grupo 228" transform="translate(308.604 202.864)">
      <path id="Trazado_2201" data-name="Trazado 2201" d="M310.478,203.271h.969v2.791c0,.824.263,1.364,1,1.364s1-.54,1-1.364v-2.791h.969v3.088c0,1.3-.734,1.828-1.974,1.828s-1.973-.533-1.973-1.828Z" transform="translate(-310.478 -203.188)" fill="#1da488"/>
      <path id="Trazado_2202" data-name="Trazado 2202" d="M335.088,203.271h1.191l1.842,3.614h.013v-3.614h.928V208.1h-1.184l-1.849-3.614h-.014V208.1h-.928Z" transform="translate(-330.068 -203.188)" fill="#1da488"/>
      <path id="Trazado_2203" data-name="Trazado 2203" d="M359.6,203.271h.969V208.1H359.6Z" transform="translate(-349.576 -203.188)" fill="#1da488"/>
      <path id="Trazado_2204" data-name="Trazado 2204" d="M367.2,203.271h1.038l1.24,3.795h.014l1.225-3.795h.962l-1.627,4.833h-1.191Z" transform="translate(-355.628 -203.188)" fill="#1da488"/>
      <path id="Trazado_2205" data-name="Trazado 2205" d="M392.418,203.271h2.853v.762h-1.883v1.191h1.724v.762h-1.724v1.357h1.9v.762h-2.867Z" transform="translate(-375.702 -203.188)" fill="#1da488"/>
      <path id="Trazado_2206" data-name="Trazado 2206" d="M411.055,203.271H412.1c1.039,0,2.278-.034,2.278,1.308a1.106,1.106,0,0,1-1,1.122v.014c.263.021.415.284.512.5l.775,1.89h-1.08l-.582-1.509c-.139-.36-.263-.5-.672-.5h-.311V208.1h-.969Zm.969,2.064h.318c.478,0,1.025-.07,1.025-.672,0-.582-.54-.63-1.025-.63h-.318Z" transform="translate(-390.537 -203.188)" fill="#1da488"/>
      <path id="Trazado_2207" data-name="Trazado 2207" d="M434.346,203.833a2.506,2.506,0,0,0-.983-.208.673.673,0,0,0-.762.672c0,.838,2.119.485,2.119,2.1,0,1.059-.838,1.461-1.814,1.461a4.244,4.244,0,0,1-1.239-.187l.09-.872a2.336,2.336,0,0,0,1.094.3c.367,0,.859-.187.859-.623,0-.921-2.119-.54-2.119-2.14,0-1.08.838-1.475,1.689-1.475a3.646,3.646,0,0,1,1.156.173Z" transform="translate(-406.883 -202.864)" fill="#1da488"/>
      <path id="Trazado_2208" data-name="Trazado 2208" d="M451.006,203.271h.969V208.1h-.969Z" transform="translate(-422.338 -203.188)" fill="#1da488"/>
      <path id="Trazado_2209" data-name="Trazado 2209" d="M461.019,203.271h1.323c1.482,0,2.79.5,2.79,2.416s-1.308,2.417-2.79,2.417h-1.323Zm.969,4.071h.54a1.656,1.656,0,0,0,0-3.31h-.54Z" transform="translate(-430.308 -203.188)" fill="#1da488"/>
      <path id="Trazado_2210" data-name="Trazado 2210" d="M485.135,203.271h1.094l1.9,4.833h-1.073L486.638,207h-1.96l-.422,1.108h-1Zm.533.969h-.014l-.7,1.995h1.412Z" transform="translate(-448.006 -203.188)" fill="#1da488"/>
      <path id="Trazado_2211" data-name="Trazado 2211" d="M510.373,203.271H511.7c1.482,0,2.79.5,2.79,2.416s-1.308,2.417-2.79,2.417h-1.322Zm.969,4.071h.54a1.656,1.656,0,0,0,0-3.31h-.54Z" transform="translate(-469.594 -203.188)" fill="#1da488"/>
    </g>
    <g id="Grupo_237" data-name="Grupo 237" transform="translate(308.124 211.994)">
      <g id="Grupo_236" data-name="Grupo 236">
        <g id="Grupo_230" data-name="Grupo 230" transform="translate(10.202 0.19)">
          <g id="Grupo_229" data-name="Grupo 229">
            <path id="Trazado_2212" data-name="Trazado 2212" d="M358.132,248.548h2.937V259.57h-2.937Z" transform="translate(-358.132 -248.548)" fill="#1da488"/>
          </g>
        </g>
        <g id="Grupo_232" data-name="Grupo 232" transform="translate(34.798)">
          <g id="Grupo_231" data-name="Grupo 231">
            <path id="Trazado_2213" data-name="Trazado 2213" d="M484.23,247.618c3.632,0,5.527,2.164,5.527,5.7,0,3.506-1.927,5.7-5.527,5.7s-5.527-2.2-5.527-5.7C478.7,249.782,480.6,247.618,484.23,247.618Zm0,9.222c1.785,0,2.495-1.706,2.495-3.522,0-1.91-.71-3.521-2.495-3.521s-2.5,1.611-2.5,3.521C481.735,255.135,482.446,256.84,484.23,256.84Z" transform="translate(-478.703 -247.618)" fill="#1da488"/>
          </g>
        </g>
        <g id="Grupo_233" data-name="Grupo 233" transform="translate(15.002)">
          <path id="Trazado_2214" data-name="Trazado 2214" d="M388.017,247.618c-4.043,0-6.352,1.595-6.352,5.748,0,4.169,2.783,5.653,5.72,5.653a16.256,16.256,0,0,0,4.264-.505v-6.127h-4.123l-.4,2.085h1.682v2.179a2.564,2.564,0,0,1-1.042.19c-2.147,0-3.067-1.311-3.067-3.474,0-2.574,1.345-3.569,3.73-3.569a5.684,5.684,0,0,1,2.454.589l.441-2.288A10.688,10.688,0,0,0,388.017,247.618Z" transform="translate(-381.665 -247.618)" fill="#1da488"/>
        </g>
        <g id="Grupo_234" data-name="Grupo 234">
          <path id="Trazado_2215" data-name="Trazado 2215" d="M312.924,247.618c-2.211,0-4.8.726-4.8,3.379,0,4.011,5.211,2.716,5.211,4.769,0,.885-.885,1.074-1.816,1.074a6.453,6.453,0,0,1-3.032-.727l-.253,2.432a11.553,11.553,0,0,0,3.284.474c2.448,0,4.848-.774,4.848-3.632,0-3.979-5.211-2.779-5.211-4.564,0-.963,1.232-1.026,1.974-1.026a6.066,6.066,0,0,1,2.085.358l.418-2.168A9.532,9.532,0,0,0,312.924,247.618Z" transform="translate(-308.124 -247.618)" fill="#1da488"/>
        </g>
        <g id="Grupo_235" data-name="Grupo 235" transform="translate(27.166 0.19)">
          <path id="Trazado_2216" data-name="Trazado 2216" d="M448.071,257.391h-3.842v-8.843h-2.937V259.57h6.78Z" transform="translate(-441.291 -248.548)" fill="#1da488"/>
        </g>
      </g>
    </g>
    <g id="Grupo_239" data-name="Grupo 239" transform="translate(308.534 227.187)">
      <g id="Grupo_238" data-name="Grupo 238" transform="translate(0 0)">
        <path id="Trazado_2217" data-name="Trazado 2217" d="M310.133,323.1h.555v2.332h1.075v.436h-1.63Z" transform="translate(-310.133 -322.897)" fill="#1da488"/>
        <path id="Trazado_2218" data-name="Trazado 2218" d="M319.2,326.582a1.83,1.83,0,0,1,.71-.155c.623,0,.88.258.88.861v.262c0,.206,0,.361.008.511s.012.3.024.456h-.468a2.52,2.52,0,0,1-.024-.305h-.008a.73.73,0,0,1-.631.353.651.651,0,0,1-.714-.607.6.6,0,0,1,.349-.583,1.619,1.619,0,0,1,.686-.119h.294c0-.329-.147-.44-.46-.44a1.069,1.069,0,0,0-.63.222Zm.623,1.594a.451.451,0,0,0,.373-.183.677.677,0,0,0,.111-.42h-.23c-.238,0-.591.04-.591.353C319.487,328.1,319.633,328.176,319.824,328.176Z" transform="translate(-317.174 -325.543)" fill="#1da488"/>
        <path id="Trazado_2219" data-name="Trazado 2219" d="M336.963,328.4a1.4,1.4,0,0,1-.7.163.97.97,0,0,1-1.067-1.059.955.955,0,0,1,.948-1.079c.757,0,.971.52.971,1.233H335.7a.534.534,0,0,0,.583.516,1.379,1.379,0,0,0,.678-.206Zm-.357-1.106c-.016-.258-.135-.48-.432-.48a.463.463,0,0,0-.472.48Z" transform="translate(-330.082 -325.543)" fill="#1da488"/>
        <path id="Trazado_2220" data-name="Trazado 2220" d="M347.495,324.836h-.008a.757.757,0,0,1-.627.278c-.627,0-.857-.516-.857-1.075s.23-1.063.857-1.063a.726.726,0,0,1,.611.286h.008v-1.17h.531v2.974h-.516Zm-.488-.135c.353,0,.468-.373.468-.662s-.135-.65-.476-.65-.44.377-.44.65S346.658,324.7,347.007,324.7Z" transform="translate(-338.686 -322.092)" fill="#1da488"/>
        <path id="Trazado_2221" data-name="Trazado 2221" d="M360.4,328.7h-.5v-.278h-.008a.852.852,0,0,1-.67.325c-.484,0-.694-.341-.694-.8V326.66h.531v1.091c0,.25,0,.587.345.587.385,0,.468-.417.468-.678v-1h.531Z" transform="translate(-348.652 -325.728)" fill="#1da488"/>
        <path id="Trazado_2222" data-name="Trazado 2222" d="M371.217,326.915a.8.8,0,0,0-.361-.075c-.329,0-.539.262-.539.646s.178.666.551.666a1.128,1.128,0,0,0,.409-.1l.024.44a1.729,1.729,0,0,1-.531.067,1.071,1.071,0,0,1-.02-2.137,1.728,1.728,0,0,1,.516.067Z" transform="translate(-357.598 -325.543)" fill="#1da488"/>
        <path id="Trazado_2223" data-name="Trazado 2223" d="M378.616,326.582a1.83,1.83,0,0,1,.71-.155c.623,0,.881.258.881.861v.262c0,.206,0,.361.008.511s.012.3.024.456h-.468a2.54,2.54,0,0,1-.024-.305h-.008a.729.729,0,0,1-.631.353.651.651,0,0,1-.714-.607.6.6,0,0,1,.349-.583,1.619,1.619,0,0,1,.686-.119h.294c0-.329-.147-.44-.46-.44a1.069,1.069,0,0,0-.631.222Zm.623,1.594a.451.451,0,0,0,.373-.183.675.675,0,0,0,.111-.42h-.23c-.238,0-.591.04-.591.353C378.9,328.1,379.048,328.176,379.239,328.176Z" transform="translate(-364.469 -325.543)" fill="#1da488"/>
        <path id="Trazado_2224" data-name="Trazado 2224" d="M390.658,326.915a.8.8,0,0,0-.361-.075c-.329,0-.539.262-.539.646s.178.666.551.666a1.127,1.127,0,0,0,.408-.1l.024.44a1.728,1.728,0,0,1-.531.067,1.071,1.071,0,0,1-.02-2.137,1.729,1.729,0,0,1,.516.067Z" transform="translate(-373.073 -325.543)" fill="#1da488"/>
        <path id="Trazado_2225" data-name="Trazado 2225" d="M398.535,322.345h.531v.508h-.531Zm0,.88h.531v2.042h-.531Z" transform="translate(-380.501 -322.293)" fill="#1da488"/>
        <path id="Trazado_2226" data-name="Trazado 2226" d="M404.307,323.271a1.023,1.023,0,0,1,1.071,1.083,1.069,1.069,0,0,1-2.138,0A1.022,1.022,0,0,1,404.307,323.271Zm0,1.725c.408,0,.516-.365.516-.706a.521.521,0,1,0-1.027,0C403.8,324.627,403.9,325,404.307,325Zm.04-2.534h.543l-.543.579h-.329Z" transform="translate(-384.246 -322.387)" fill="#1da488"/>
        <path id="Trazado_2227" data-name="Trazado 2227" d="M415.761,326.475h.5v.278h.008a.762.762,0,0,1,.67-.325c.484,0,.694.341.694.8v1.289h-.531v-1.091c0-.25,0-.587-.345-.587-.385,0-.468.416-.468.678v1h-.531Z" transform="translate(-394.213 -325.543)" fill="#1da488"/>
        <path id="Trazado_2228" data-name="Trazado 2228" d="M434.172,328.4a1.4,1.4,0,0,1-.7.163.97.97,0,0,1-1.067-1.059.955.955,0,0,1,.948-1.079c.757,0,.971.52.971,1.233h-1.412a.534.534,0,0,0,.583.516,1.379,1.379,0,0,0,.678-.206Zm-.357-1.106c-.016-.258-.135-.48-.432-.48a.463.463,0,0,0-.472.48Z" transform="translate(-407.46 -325.543)" fill="#1da488"/>
        <path id="Trazado_2229" data-name="Trazado 2229" d="M442.746,326.66h.571l.508,1.487h.008l.492-1.487h.531L444.1,328.7h-.6Z" transform="translate(-415.693 -325.728)" fill="#1da488"/>
        <path id="Trazado_2230" data-name="Trazado 2230" d="M455.089,326.427a1.023,1.023,0,0,1,1.071,1.083,1.069,1.069,0,0,1-2.138,0A1.022,1.022,0,0,1,455.089,326.427Zm0,1.725c.408,0,.515-.365.515-.706a.521.521,0,1,0-1.027,0C454.577,327.783,454.684,328.152,455.089,328.152Z" transform="translate(-424.668 -325.543)" fill="#1da488"/>
        <path id="Trazado_2231" data-name="Trazado 2231" d="M466.6,322.092h.531v2.974H466.6Z" transform="translate(-434.682 -322.092)" fill="#1da488"/>
        <path id="Trazado_2232" data-name="Trazado 2232" d="M473.824,328.7h-.5v-.278h-.008a.852.852,0,0,1-.67.325c-.484,0-.694-.341-.694-.8V326.66h.531v1.091c0,.25,0,.587.345.587.385,0,.468-.417.468-.678v-1h.531Z" transform="translate(-438.938 -325.728)" fill="#1da488"/>
        <path id="Trazado_2233" data-name="Trazado 2233" d="M484.64,326.915a.8.8,0,0,0-.361-.075c-.329,0-.54.262-.54.646s.178.666.551.666a1.128,1.128,0,0,0,.408-.1l.024.44a1.727,1.727,0,0,1-.531.067,1.071,1.071,0,0,1-.02-2.137,1.729,1.729,0,0,1,.516.067Z" transform="translate(-447.882 -325.543)" fill="#1da488"/>
        <path id="Trazado_2234" data-name="Trazado 2234" d="M492.517,322.345h.531v.508h-.531Zm0,.88h.531v2.042h-.531Z" transform="translate(-455.311 -322.293)" fill="#1da488"/>
        <path id="Trazado_2235" data-name="Trazado 2235" d="M498.289,326.427a1.023,1.023,0,0,1,1.07,1.083,1.069,1.069,0,0,1-2.137,0A1.022,1.022,0,0,1,498.289,326.427Zm0,1.725c.408,0,.515-.365.515-.706a.521.521,0,1,0-1.027,0C497.777,327.783,497.884,328.152,498.289,328.152Z" transform="translate(-459.056 -325.543)" fill="#1da488"/>
        <path id="Trazado_2236" data-name="Trazado 2236" d="M509.742,326.475h.5v.278h.008a.762.762,0,0,1,.67-.325c.484,0,.694.341.694.8v1.289h-.531v-1.091c0-.25,0-.587-.345-.587-.385,0-.468.416-.468.678v1h-.532Z" transform="translate(-469.022 -325.543)" fill="#1da488"/>
        <path id="Trazado_2237" data-name="Trazado 2237" d="M521.2,326.582a1.829,1.829,0,0,1,.71-.155c.623,0,.88.258.88.861v.262c0,.206,0,.361.008.511s.012.3.024.456h-.468a2.538,2.538,0,0,1-.024-.305h-.008a.73.73,0,0,1-.631.353.651.651,0,0,1-.714-.607.6.6,0,0,1,.349-.583,1.62,1.62,0,0,1,.686-.119h.294c0-.329-.147-.44-.46-.44a1.069,1.069,0,0,0-.63.222Zm.623,1.594a.45.45,0,0,0,.373-.183.676.676,0,0,0,.111-.42h-.23c-.238,0-.591.04-.591.353C521.487,328.1,521.633,328.176,521.824,328.176Z" transform="translate(-477.966 -325.543)" fill="#1da488"/>
      </g>
    </g>
    <g id="Grupo_392" data-name="Grupo 392" transform="translate(359.736 208.168)">
      <path id="Trazado_2270" data-name="Trazado 2270" d="M832.65,109.441v18.583h14.415l3.642-18.583Z" transform="translate(-832.65 -109.441)" fill="#1da488"/>
      <path id="Trazado_2271" data-name="Trazado 2271" d="M843.577,115.845a4.267,4.267,0,0,0-2.8-.78,9.079,9.079,0,0,0-1.806.191,9.353,9.353,0,0,0-.934.242l-.466,2.411a5.774,5.774,0,0,1,1-.428,4.791,4.791,0,0,1,1.42-.195,1.543,1.543,0,0,1,1.139.365,1.273,1.273,0,0,1,.353.915,2.14,2.14,0,0,1-.694,1.512,25,25,0,0,1-2.8,2.213l-1.457,1.041-.543,2.811h7.126l.44-2.286h-4.293l1.879-1.313a11.908,11.908,0,0,0,2.531-2.3,3.83,3.83,0,0,0,.823-2.365,2.559,2.559,0,0,0-.913-2.038" transform="translate(-833.754 -111.302)" fill="#fff"/>
      <path id="Trazado_2272" data-name="Trazado 2272" d="M858.264,109.441h-.728l-3.641,18.583h4.369Z" transform="translate(-839.681 -109.441)" fill="#1da488"/>
      <path id="Trazado_2273" data-name="Trazado 2273" d="M852.48,120.955l-2.71.92-.464,2.419,2.072-.825-1.635,8.366h2.633l2.132-10.88Z" transform="translate(-838.162 -113.251)" fill="#fff"/>
      <path id="Trazado_2274" data-name="Trazado 2274" d="M859.207,109.441l-3.559,18.641h-.665l3.569-18.641Z" transform="translate(-841.149 -109.441)" fill="#fff"/>
    </g>
  </g>
</svg>
