<svg xmlns="http://www.w3.org/2000/svg" width="37" height="37" viewBox="0 0 37 37">
  <path id="Sustracción_2" data-name="Sustracción 2" d="M18.5,37a18.636,18.636,0,0,1-3.729-.376A18.4,18.4,0,0,1,8.156,33.84a18.554,18.554,0,0,1-6.7-8.14A18.408,18.408,0,0,1,.376,22.228a18.679,18.679,0,0,1,0-7.456A18.4,18.4,0,0,1,3.159,8.157a18.554,18.554,0,0,1,8.139-6.7A18.406,18.406,0,0,1,14.771.376a18.68,18.68,0,0,1,7.457,0A18.4,18.4,0,0,1,28.844,3.16a18.554,18.554,0,0,1,6.7,8.14,18.407,18.407,0,0,1,1.078,3.473,18.68,18.68,0,0,1,0,7.456,18.4,18.4,0,0,1-2.784,6.615,18.554,18.554,0,0,1-8.139,6.7,18.406,18.406,0,0,1-3.473,1.078A18.637,18.637,0,0,1,18.5,37ZM16.191,13.835V25.419h3.477V19.155a2.583,2.583,0,0,1,.8-1.8,2.826,2.826,0,0,1,.868-.589,2.672,2.672,0,0,1,1.068-.222,1.876,1.876,0,0,1,.937.222,1.571,1.571,0,0,1,.58.585,3.539,3.539,0,0,1,.377,1.776v6.3h3.464V18.864c0-2.033-.433-3.514-1.288-4.4a3.388,3.388,0,0,0-2.55-.989,5.2,5.2,0,0,0-4.253,1.969V13.835Zm-5.766.038V25.419h3.464V13.873ZM12.141,9.25a1.734,1.734,0,1,0,1.734,1.734A1.736,1.736,0,0,0,12.141,9.25Z" fill="#03b19d"/>
</svg>
