<svg xmlns="http://www.w3.org/2000/svg" width="37.311" height="37.311" viewBox="0 0 37.311 37.311">
  <path id="twitter" d="M18.656,0A18.656,18.656,0,1,0,37.311,18.656,18.658,18.658,0,0,0,18.656,0Zm8.518,14.546q.012.275.012.553A12.1,12.1,0,0,1,15,27.282h0a12.12,12.12,0,0,1-6.563-1.923,8.709,8.709,0,0,0,1.021.059,8.592,8.592,0,0,0,5.318-1.833,4.287,4.287,0,0,1-4-2.974,4.268,4.268,0,0,0,1.934-.073,4.283,4.283,0,0,1-3.435-4.2c0-.019,0-.037,0-.055a4.252,4.252,0,0,0,1.939.535A4.286,4.286,0,0,1,9.891,11.1a12.157,12.157,0,0,0,8.826,4.474,4.284,4.284,0,0,1,7.3-3.9,8.589,8.589,0,0,0,2.719-1.039A4.3,4.3,0,0,1,26.85,13a8.54,8.54,0,0,0,2.459-.674,8.7,8.7,0,0,1-2.136,2.218Zm0,0" fill="#03b19d"/>
</svg>
